<?xml version="1.0" encoding="UTF-8"?>
<!DOCTYPE svg PUBLIC "-//W3C//DTD SVG 1.1//EN" "http://www.w3.org/Graphics/SVG/1.1/DTD/svg11.dtd">
<!-- Creator: CorelDRAW 2018 (64-Bit) -->
<svg xmlns="http://www.w3.org/2000/svg" xml:space="preserve" width="669px" height="1049px" version="1.1" style="shape-rendering:geometricPrecision; text-rendering:geometricPrecision; image-rendering:optimizeQuality; fill-rule:evenodd; clip-rule:evenodd"
viewBox="0 0 712.508 1118.223"
 xmlns:xlink="http://www.w3.org/1999/xlink">
 <defs>
  <style type="text/css">
   <![CDATA[
    .fil5 {fill:#332C2B}
    .fil0 {fill:#474443}
    .fil7 {fill:#757475}
    .fil6 {fill:#8B8B8C}
    .fil4 {fill:#B6B6B7}
    .fil3 {fill:#C9CACA}
    .fil9 {fill:#DCDDDD}
    .fil1 {fill:#EFECCE}
    .fil2 {fill:#FFFCDB}
    .fil8 {fill:#5F5D5D;fill-rule:nonzero}
   ]]>
  </style>
 </defs>
 <g id="图层_x0020_1">
  <metadata id="CorelCorpID_0Corel-Layer"/>
  <g id="_2538106186080">
   <rect class="fil0" x="660.118" y="446.047" width="52.389" height="520.389"/>
   <rect class="fil1" x="678.79" y="667.413" width="18.715" height="72.056"/>
   <rect class="fil1" x="678.79" y="847.564" width="18.715" height="72.056"/>
   <rect class="fil1" x="678.79" y="487.24" width="18.715" height="72.056"/>
   <rect class="fil2" x="670.81" y="735.35" width="41.698" height="15.814"/>
   <rect class="fil2" x="670.81" y="657.434" width="41.698" height="15.814"/>
   <rect class="fil2" x="670.81" y="915.5" width="41.698" height="15.814"/>
   <rect class="fil2" x="670.81" y="837.585" width="41.698" height="15.814"/>
   <rect class="fil2" x="670.81" y="555.176" width="41.698" height="15.814"/>
   <rect class="fil2" x="670.81" y="477.261" width="41.698" height="15.814"/>
   <rect class="fil0" y="446.047" width="52.389" height="520.389"/>
   <rect class="fil1" x="15.001" y="667.413" width="18.715" height="72.056"/>
   <rect class="fil2" y="735.35" width="41.698" height="15.814"/>
   <rect class="fil2" y="657.434" width="41.698" height="15.814"/>
   <rect class="fil1" x="15.001" y="847.563" width="18.715" height="72.056"/>
   <rect class="fil2" y="915.5" width="41.698" height="15.814"/>
   <rect class="fil2" y="837.585" width="41.698" height="15.814"/>
   <rect class="fil1" x="15.001" y="487.24" width="18.715" height="72.056"/>
   <rect class="fil2" y="555.176" width="41.698" height="15.814"/>
   <rect class="fil2" y="477.261" width="41.698" height="15.814"/>
   <path class="fil3" d="M49.116 0l212.123 0 8.404 9.875 39.75 0 11.953 6.895 34.908 0 34.908 0 11.951 -6.895 39.751 0 8.404 -9.875 212.124 0 0 0c26.996,0 49.115,22.133 49.115,49.144l0 428.117 -21.042 24.654 0 44.445 21.042 24.632 0 86.443 -21.042 24.631 0 44.467 21.042 26.16 0 84.893 -21.042 24.653 0 44.444 21.042 26.159 0 136.237c0,27.036 -22.119,49.144 -49.115,49.144l-307.139 0 -307.137 0c-26.995,0 -49.115,-22.108 -49.115,-49.144l0 -136.237 21.043 -26.159 0 -44.444 -21.043 -24.653 0 -84.893 21.043 -26.16 0 -44.467 -21.043 -24.631 0 -86.443 21.043 -24.632 0 -44.445 -21.043 -24.654 0 -428.117c0,-27.011 22.12,-49.144 49.115,-49.144l0 0 -0.001 0 0.001 0z"/>
   <path class="fil4" d="M261.239 0l8.404 9.875 39.75 0 11.953 6.895 34.941 0 34.92 0 11.952 -6.895 39.751 0 8.403 -9.875 0 185.695c0,9.004 -7.373,16.381 -16.371,16.381l-157.306 0c-9.023,0 -16.394,-7.377 -16.394,-16.381l0 -185.695 0 0 -0.003 0 0 0 0 0 0 0z"/>
   <rect class="fil5" x="198.156" y="202.077" width="316.194" height="191.788"/>
   <path class="fil0" d="M201.019 424.749l66.311 0c9.068,0 16.395,7.332 16.395,16.38l0 39.294c0,9.05 -7.328,16.381 -16.395,16.381l-66.311 0c-9.045,0 -16.395,-7.331 -16.395,-16.381l0 -39.294c0,-9.048 7.349,-16.38 16.395,-16.38z"/>
   <path class="fil0" d="M323.133 424.749l66.311 0c9.067,0 16.395,7.332 16.395,16.38l0 39.294c0,9.05 -7.328,16.381 -16.395,16.381l-66.311 0c-9.046,0 -16.395,-7.331 -16.395,-16.381l0 -39.294c0,-9.048 7.349,-16.38 16.395,-16.38z"/>
   <path class="fil0" d="M445.22 424.749l66.336 0c9.043,0 16.372,7.332 16.372,16.38l0 39.294c0,9.05 -7.328,16.381 -16.372,16.381l-66.336 0c-9.043,0 -16.394,-7.331 -16.394,-16.381l0 -39.294c0,-9.048 7.351,-16.38 16.394,-16.38z"/>
   <rect class="fil6" x="82.615" y="502.668" width="10.992" height="44.448"/>
   <rect class="fil6" x="82.615" y="682.839" width="10.992" height="44.448"/>
   <rect class="fil6" x="82.615" y="862.989" width="10.992" height="44.448"/>
   <ellipse class="fil7" cx="56.855" cy="57.119" rx="38.17" ry="38.192"/>
   <ellipse class="fil7" cx="56.855" cy="1061.082" rx="38.17" ry="38.192"/>
   <ellipse class="fil5" cx="56.855" cy="57.119" rx="26.195" ry="26.211"/>
   <ellipse class="fil5" cx="56.855" cy="1061.082" rx="26.195" ry="26.211"/>
   <ellipse class="fil7" cx="654.759" cy="57.119" rx="38.17" ry="38.192"/>
   <ellipse class="fil7" cx="654.759" cy="1061.082" rx="38.17" ry="38.192"/>
   <ellipse class="fil5" cx="654.759" cy="57.119" rx="26.195" ry="26.211"/>
   <ellipse class="fil5" cx="654.759" cy="1061.082" rx="26.195" ry="26.211"/>
   <path class="fil8" d="M411.631 729.673c-3.32,-3.071 -3.55,-8.224 -0.481,-11.547 3.067,-3.322 8.219,-3.552 11.54,-0.481 9.892,9.119 17.929,20.276 23.424,32.809 5.291,12.097 8.244,25.386 8.244,39.338 0,27.082 -10.991,51.62 -28.736,69.374 -17.748,17.758 -42.27,28.754 -69.335,28.754 -27.087,0 -51.61,-10.996 -69.356,-28.754 -17.746,-17.755 -28.737,-42.293 -28.737,-69.374 0,-14.229 3.069,-27.769 8.563,-40.049 5.679,-12.693 13.992,-23.988 24.227,-33.129 3.366,-2.979 8.517,-2.703 11.518,0.641 2.999,3.368 2.724,8.523 -0.641,11.524 -8.52,7.63 -15.479,17.024 -20.195,27.608 -4.558,10.173 -7.076,21.491 -7.076,33.406 0,22.565 9.136,43.003 23.927,57.803 14.769,14.8 35.194,23.944 57.77,23.944 22.555,0 42.979,-9.144 57.748,-23.944 14.791,-14.8 23.928,-35.238 23.928,-57.803 0,-11.709 -2.427,-22.798 -6.8,-32.81 -4.557,-10.401 -11.265,-19.68 -19.533,-27.309l0 0 0 -0.001 0 0 0.001 0 0 0z"/>
   <path class="fil8" d="M348.091 691.298c0,-4.537 3.663,-8.203 8.196,-8.203 4.512,0 8.175,3.665 8.175,8.203l0 88.276c0,4.56 -3.663,8.225 -8.175,8.225 -4.51,0 -8.196,-3.666 -8.196,-8.225l0 -88.276z"/>
   <polygon class="fil3" points="356.287,77.691 341.634,97.35 326.956,117.007 356.287,117.007 385.596,117.007 370.919,97.35 "/>
   <polygon class="fil9" points="382.413,977.847 382.413,1001.537 401.784,1001.537 402.7,1001.537 403.616,1001.561 404.511,1001.606 405.379,1001.652 406.25,1001.72 407.12,1001.812 407.967,1001.904 408.791,1002.041 409.592,1002.155 410.395,1002.293 411.173,1002.476 411.951,1002.637 412.707,1002.843 413.462,1003.049 414.195,1003.278 414.929,1003.508 415.615,1003.759 416.326,1004.035 417.012,1004.309 417.653,1004.607 418.317,1004.951 418.958,1005.272 419.599,1005.616 420.195,1005.983 420.812,1006.348 421.384,1006.762 421.957,1007.15 422.531,1007.585 423.056,1008.044 423.606,1008.503 424.133,1008.96 424.636,1009.465 425.095,1009.945 425.576,1010.473 426.057,1010.999 426.49,1011.549 426.926,1012.099 427.338,1012.671 427.728,1013.268 428.117,1013.842 428.482,1014.459 428.827,1015.078 429.172,1015.719 429.491,1016.361 429.789,1017.002 430.086,1017.713 430.361,1018.377 430.612,1019.064 430.865,1019.796 431.093,1020.531 431.277,1021.264 431.483,1022.02 431.689,1022.797 431.826,1023.576 431.988,1024.38 432.1,1025.18 432.239,1026.006 432.331,1026.831 432.422,1027.679 432.491,1028.55 432.537,1029.421 432.582,1030.291 432.604,1031.184 432.604,1032.125 432.604,1032.903 432.559,1033.682 432.537,1034.461 432.491,1035.216 432.398,1035.995 432.308,1036.752 432.17,1037.486 432.056,1038.218 431.896,1038.952 431.734,1039.685 431.552,1040.394 431.346,1041.106 431.14,1041.815 430.888,1042.502 430.635,1043.19 430.361,1043.877 430.065,1044.542 429.766,1045.206 429.446,1045.87 429.102,1046.511 428.735,1047.153 428.369,1047.794 427.957,1048.436 427.545,1049.032 427.108,1049.674 426.674,1050.247 426.195,1050.866 425.713,1051.437 425.186,1052.035 424.683,1052.629 424.156,1053.18 423.583,1053.751 423.011,1054.301 422.462,1054.828 421.868,1055.355 421.294,1055.86 420.676,1056.34 420.079,1056.776 419.461,1057.235 418.844,1057.647 418.226,1058.082 417.585,1058.471 416.943,1058.838 416.302,1059.227 415.638,1059.549 414.975,1059.869 414.287,1060.167 413.622,1060.487 412.959,1060.74 412.248,1060.993 411.563,1061.244 410.852,1061.45 410.143,1061.656 409.409,1061.817 408.676,1062 407.944,1062.161 407.211,1062.274 406.432,1062.388 405.677,1062.504 404.922,1062.572 404.144,1062.618 403.364,1062.664 402.586,1062.687 401.784,1062.71 370.964,1062.71 370.964,1051.506 401.784,1051.506 402.288,1051.506 402.769,1051.483 403.273,1051.461 403.777,1051.413 404.257,1051.392 404.738,1051.323 405.196,1051.255 405.677,1051.163 406.135,1051.071 406.616,1050.98 407.074,1050.842 407.532,1050.705 407.967,1050.566 408.402,1050.43 408.86,1050.247 409.296,1050.109 409.73,1049.903 410.143,1049.718 410.555,1049.513 410.967,1049.307 411.379,1049.079 411.792,1048.826 412.203,1048.575 412.592,1048.32 413.005,1048.047 413.37,1047.749 413.76,1047.475 414.126,1047.153 414.494,1046.832 414.883,1046.511 415.226,1046.168 415.592,1045.825 415.958,1045.481 416.302,1045.114 416.645,1044.748 416.943,1044.358 417.241,1043.991 417.561,1043.602 417.836,1043.213 418.111,1042.847 418.386,1042.433 418.615,1042.045 418.844,1041.655 419.096,1041.218 419.301,1040.83 419.53,1040.394 419.714,1039.982 419.896,1039.547 420.079,1039.134 420.239,1038.677 420.401,1038.241 420.514,1037.783 420.653,1037.346 420.766,1036.888 420.882,1036.455 420.972,1035.995 421.064,1035.514 421.133,1035.057 421.202,1034.574 421.246,1034.071 421.294,1033.59 421.316,1033.132 421.339,1032.628 421.339,1032.125 421.339,1031.619 421.316,1031.115 421.294,1030.634 421.246,1030.153 421.202,1029.672 421.133,1029.191 421.064,1028.711 420.972,1028.252 420.882,1027.771 420.766,1027.359 420.653,1026.899 420.514,1026.442 420.401,1025.983 420.239,1025.547 420.079,1025.113 419.896,1024.678 419.714,1024.242 419.53,1023.83 419.301,1023.417 419.096,1023.004 418.844,1022.593 418.615,1022.203 418.386,1021.79 418.111,1021.401 417.836,1021.012 417.561,1020.622 417.241,1020.256 416.943,1019.866 416.645,1019.476 416.302,1019.109 415.958,1018.766 415.592,1018.4 415.226,1018.057 414.883,1017.713 414.494,1017.416 414.126,1017.071 413.76,1016.773 413.37,1016.475 413.005,1016.178 412.592,1015.925 412.203,1015.673 411.792,1015.398 411.379,1015.169 410.967,1014.941 410.555,1014.735 410.143,1014.504 409.73,1014.322 409.296,1014.138 408.86,1013.978 408.402,1013.795 407.967,1013.657 407.532,1013.519 407.074,1013.382 406.616,1013.268 406.135,1013.175 405.677,1013.085 405.196,1012.993 404.738,1012.901 404.257,1012.856 403.777,1012.811 403.273,1012.764 402.769,1012.74 402.288,1012.74 401.784,1012.718 370.964,1012.718 370.964,966.436 431.002,966.436 431.002,977.847 "/>
   <polygon class="fil9" points="349.122,1062.893 360.386,1062.893 360.386,966.643 349.122,966.643 321.117,1004.515 291.236,966.643 279.947,966.643 279.947,1062.893 291.236,1062.893 291.236,989.601 320.819,1030.428 349.122,990.151 "/>
   <rect class="fil6" x="618.9" y="502.668" width="10.992" height="44.448"/>
   <rect class="fil6" x="618.9" y="682.839" width="10.992" height="44.448"/>
   <rect class="fil6" x="618.9" y="862.989" width="10.992" height="44.448"/>
  </g>
 </g>
</svg>
